# xmcd
#
# Track frame offsets:
#	150
#	17001
#	38937
#	57885
#	74927
#	95375
#	110256
#	130841
#	149851
#	163788
#	179974
#	197418
#	215156
#	233839
#	249705
#	275718
#
# Disc length: 3722 seconds
#
# Revision: 1
# Processed by: cddbd v1.5.1PL2 Copyright (c) Steve Scherf et al.
# Submitted via: audiograbber 1.83.01
#
DISCID=050e8810
DTITLE=Various Artist - CMA Awards 2005
DYEAR=2005
DGENRE=Country
TTITLE0=Keith Urban - Days go by
TTITLE1=Brad Paisley - Alcohol
TTITLE2=Sugarland - Baby girl
TTITLE3=Rascal Flatts - Bless the broken road
TTITLE4=Dierks Bentely - Lot of leavin' left to do
TTITLE5=Glen Campbell - Rhinestone cowboy
TTITLE6=Lee Ann Womack - I may hate myself in the morning
TTITLE7=Van Zant - Help somebody
TTITLE8=Miranda Lambert - Kerosene
TTITLE9=Alabama - The closer you get
TTITLE10=Alison Krauss and Union Station - Goodbye is all we have
TTITLE11=Big and Rich - Big time
TTITLE12=Gretchen Wilson - When I think about cheatin'
TTITLE13=Shania Twain and Billy Currington - Party for two
TTITLE14=Brooks and Dunn - Play something country
TTITLE15=Data track - Data Track
EXTD=
EXTT0=
EXTT1=
EXTT2=
EXTT3=
EXTT4=
EXTT5=
EXTT6=
EXTT7=
EXTT8=
EXTT9=
EXTT10=
EXTT11=
EXTT12=
EXTT13=
EXTT14=
EXTT15=
PLAYORDER=
